<svg xmlns="http://www.w3.org/2000/svg" viewBox="0 0 939.4 939.4" width="939" height="939">
<path d="M469 0 233 310V0H62V702H233V394L467 702H668L396 358L678 0Z" fill="#1C79E9" transform="translate(75.00 630.68) scale(0.46000 -0.46000)"/>
<path d="M499 124H237L195 0H16L270 702H468L722 0H541ZM455 256 368 513 282 256Z" fill="#0B2143" transform="translate(395.62 630.68) scale(0.46000 -0.46000)"/>
<path d="M40 84Q40 124 68.5 151.0Q97 178 142 178Q186 178 214.5 151.0Q243 124 243 84Q243 45 214.5 18.5Q186 -8 142 -8Q97 -8 68.5 18.5Q40 45 40 84Z" fill="#1C79E9" transform="translate(734.64 630.68) scale(0.46000 -0.46000)"/>
</svg>