<svg xmlns="http://www.w3.org/2000/svg" viewBox="0 0 1748.6 252.0" width="1749" height="252">
<path d="M469 0 233 310V0H62V702H233V394L467 702H668L396 358L678 0Z" fill="#1C79E9" transform="translate(56.00 196.00) scale(0.20000 -0.20000)"/>
<path d="M274 566Q333 566 377.5 542.0Q422 518 446 479V558H617V0H446V79Q421 40 376.5 16.0Q332 -8 273 -8Q205 -8 149.0 27.5Q93 63 60.5 128.5Q28 194 28 280Q28 366 60.5 431.0Q93 496 149.0 531.0Q205 566 274 566ZM324 417Q273 417 237.5 380.5Q202 344 202 280Q202 216 237.5 178.5Q273 141 324 141Q375 141 410.5 178.0Q446 215 446 279Q446 343 410.5 380.0Q375 417 324 417Z" fill="#1C79E9" transform="translate(195.40 196.00) scale(0.20000 -0.20000)"/>
<path d="M1001 326V0H831V303Q831 357 802.5 386.5Q774 416 724 416Q674 416 645.5 386.5Q617 357 617 303V0H447V303Q447 357 418.5 386.5Q390 416 340 416Q290 416 261.5 386.5Q233 357 233 303V0H62V558H233V488Q259 523 301.0 543.5Q343 564 396 564Q459 564 508.5 537.0Q558 510 586 460Q615 506 665.0 535.0Q715 564 774 564Q878 564 939.5 501.0Q1001 438 1001 326Z" fill="#1C79E9" transform="translate(331.20 196.00) scale(0.20000 -0.20000)"/>
<path d="M408 564V383H361Q297 383 265.0 355.5Q233 328 233 259V0H62V558H233V465Q263 511 308.0 537.5Q353 564 408 564Z" fill="#1C79E9" transform="translate(543.00 196.00) scale(0.20000 -0.20000)"/>
<path d="M274 566Q333 566 377.5 542.0Q422 518 446 479V558H617V0H446V79Q421 40 376.5 16.0Q332 -8 273 -8Q205 -8 149.0 27.5Q93 63 60.5 128.5Q28 194 28 280Q28 366 60.5 431.0Q93 496 149.0 531.0Q205 566 274 566ZM324 417Q273 417 237.5 380.5Q202 344 202 280Q202 216 237.5 178.5Q273 141 324 141Q375 141 410.5 178.0Q446 215 446 279Q446 343 410.5 380.0Q375 417 324 417Z" fill="#1C79E9" transform="translate(628.60 196.00) scale(0.20000 -0.20000)"/>
<path d="M617 326V0H447V303Q447 359 418.0 390.0Q389 421 340 421Q291 421 262.0 390.0Q233 359 233 303V0H62V558H233V484Q259 521 303.0 542.5Q347 564 402 564Q500 564 558.5 500.5Q617 437 617 326Z" fill="#1C79E9" transform="translate(764.40 196.00) scale(0.20000 -0.20000)"/>
<path d="M499 124H237L195 0H16L270 702H468L722 0H541ZM455 256 368 513 282 256Z" fill="#0B2143" transform="translate(941.60 196.00) scale(0.20000 -0.20000)"/>
<path d="M408 564V383H361Q297 383 265.0 355.5Q233 328 233 259V0H62V558H233V465Q263 511 308.0 537.5Q353 564 408 564Z" fill="#0B2143" transform="translate(1089.00 196.00) scale(0.20000 -0.20000)"/>
<path d="M32 183H201Q204 154 228.0 136.0Q252 118 287 118Q319 118 336.5 130.5Q354 143 354 163Q354 187 329.0 198.5Q304 210 248 224Q188 238 148.0 253.5Q108 269 79.0 302.5Q50 336 50 393Q50 441 76.5 480.5Q103 520 154.5 543.0Q206 566 277 566Q382 566 442.5 514.0Q503 462 512 376H354Q350 405 328.5 422.0Q307 439 272 439Q242 439 226.0 427.5Q210 416 210 396Q210 372 235.5 360.0Q261 348 315 336Q377 320 416.0 304.5Q455 289 484.5 254.5Q514 220 515 162Q515 113 487.5 74.5Q460 36 408.5 14.0Q357 -8 289 -8Q216 -8 159.0 17.0Q102 42 69.0 85.5Q36 129 32 183Z" fill="#0B2143" transform="translate(1174.60 196.00) scale(0.20000 -0.20000)"/>
<path d="M617 326V0H447V303Q447 359 418.0 390.0Q389 421 340 421Q291 421 262.0 390.0Q233 359 233 303V0H62V740H233V483Q259 520 304.0 542.0Q349 564 405 564Q501 564 559.0 500.5Q617 437 617 326Z" fill="#0B2143" transform="translate(1286.20 196.00) scale(0.20000 -0.20000)"/>
<path d="M274 566Q333 566 377.5 542.0Q422 518 446 479V558H617V0H446V79Q421 40 376.5 16.0Q332 -8 273 -8Q205 -8 149.0 27.5Q93 63 60.5 128.5Q28 194 28 280Q28 366 60.5 431.0Q93 496 149.0 531.0Q205 566 274 566ZM324 417Q273 417 237.5 380.5Q202 344 202 280Q202 216 237.5 178.5Q273 141 324 141Q375 141 410.5 178.0Q446 215 446 279Q446 343 410.5 380.0Q375 417 324 417Z" fill="#0B2143" transform="translate(1421.00 196.00) scale(0.20000 -0.20000)"/>
<path d="M274 566Q329 566 374.5 543.0Q420 520 446 481V740H617V0H446V80Q422 40 377.5 16.0Q333 -8 274 -8Q205 -8 149.0 27.5Q93 63 60.5 128.5Q28 194 28 280Q28 366 60.5 431.0Q93 496 149.0 531.0Q205 566 274 566ZM324 417Q273 417 237.5 380.5Q202 344 202 280Q202 216 237.5 178.5Q273 141 324 141Q375 141 410.5 178.0Q446 215 446 279Q446 343 410.5 380.0Q375 417 324 417Z" fill="#0B2143" transform="translate(1556.80 196.00) scale(0.20000 -0.20000)"/>
</svg>